<?xml version="1.0" encoding="UTF-8"?>
<svg xmlns="http://www.w3.org/2000/svg" xmlns:xlink="http://www.w3.org/1999/xlink" width="2836" height="2837" viewBox="0 0 2836 2837">
<path fill-rule="evenodd" fill="rgb(58.984375%, 58.984375%, 58.984375%)" fill-opacity="1" d="M 1 0.351562 L 2835.648438 0.351562 L 2835.648438 2835 L 1 2835 L 1 0.351562 "/>
<path fill-rule="evenodd" fill="rgb(0%, 0%, 0%)" fill-opacity="1" d="M 0.511719 1.449219 L 2835.160156 1.449219 L 2835.160156 2836.09375 L 0.511719 2836.09375 L 0.511719 1.449219 "/>
<path fill-rule="evenodd" fill="rgb(98.046875%, 98.046875%, 31.005859%)" fill-opacity="1" d="M 1863.328125 838.949219 C 1854.460938 793.738281 1838.039062 723.089844 1823.320312 682.160156 L 1816.511719 678.921875 C 1803.878906 670.648438 1822.351562 691.050781 1812.539062 675.351562 C 1799.179688 653.980469 1798.539062 593.960938 1783.261719 567.761719 C 1769 595.890625 1785.101562 597.328125 1779.730469 663.351562 C 1767.121094 818.441406 1692.121094 948.929688 1612.589844 1076.390625 C 1601.101562 1094.800781 1530.988281 1209.308594 1522.230469 1216.53125 C 1509.371094 1209.320312 1508.941406 1201.390625 1502.078125 1186.398438 L 1456.410156 1085.640625 C 1403.878906 963.738281 1369.371094 835.761719 1362.621094 700.878906 C 1361.28125 674.289062 1367.019531 630.429688 1357.28125 609.980469 C 1342.5 621.710938 1324.050781 724.699219 1319.929688 750.339844 C 1310.828125 807.058594 1310.480469 851.449219 1308.269531 910.761719 C 1289.851562 864.199219 1313.261719 730.710938 1325.550781 676.71875 C 1329.21875 660.570312 1345.089844 623.148438 1332.980469 608.558594 C 1311.761719 668.78125 1276.371094 726.339844 1248.949219 783.421875 C 1221.128906 841.351562 1178.960938 901.878906 1180.628906 970.851562 C 1181.941406 1025.21875 1220.320312 1296.191406 1232.398438 1364.851562 C 1234.488281 1376.75 1234.269531 1409.96875 1244.808594 1415.519531 C 1251.71875 1402.359375 1200.011719 1081.539062 1193.570312 1039.839844 C 1175.539062 923.101562 1208.839844 877.800781 1253.640625 785.429688 C 1262.289062 767.601562 1275.101562 722.648438 1293.96875 715.300781 C 1290.320312 760.859375 1275.210938 812.511719 1269.628906 862.070312 C 1263.019531 920.910156 1268.019531 959.191406 1276.621094 1013.371094 C 1283.621094 1057.46875 1315.5 1275.820312 1327.289062 1294.179688 C 1339.199219 1290.128906 1337.378906 1289.339844 1346.738281 1283.179688 C 1351.21875 1237.808594 1308.300781 1133.058594 1306.039062 1080.648438 C 1323.25 1090.921875 1365.640625 1195.070312 1378.449219 1222.980469 C 1386.378906 1240.230469 1389.519531 1261.621094 1413.511719 1261.210938 L 1415.660156 1255.140625 C 1417.921875 1242.421875 1409.828125 1227.199219 1405.878906 1215.371094 C 1383.21875 1147.421875 1314.660156 945.339844 1338.539062 893.851562 C 1344.21875 911.621094 1345.859375 970.339844 1350.210938 995.449219 C 1358.300781 1042.179688 1409.210938 1241.671875 1436.011719 1255.820312 C 1442.371094 1242.390625 1415.78125 1180.949219 1411.640625 1167.980469 C 1406.519531 1151.929688 1383.898438 1093.398438 1387.269531 1084.550781 C 1394.191406 1092.738281 1424.148438 1181.960938 1430.78125 1200.71875 C 1436.609375 1217.230469 1442.960938 1244.699219 1455.761719 1254.578125 C 1466.691406 1263.019531 1497.359375 1277.789062 1510.988281 1280.398438 C 1524.128906 1268.921875 1572.429688 1182.800781 1585.351562 1161.460938 C 1633.761719 1081.46875 1683.550781 1002.199219 1720.988281 914.101562 C 1730.320312 892.160156 1761.421875 798.429688 1773.410156 780.480469 C 1787 800.058594 1757.550781 922.730469 1749.78125 948.199219 C 1720.058594 1045.539062 1640.929688 1184.878906 1587.378906 1276.089844 C 1574.570312 1297.910156 1557 1316.859375 1554.441406 1343.171875 C 1573.640625 1334.21875 1587.949219 1313.949219 1601.039062 1300.789062 C 1626.960938 1274.71875 1626.019531 1283.808594 1660.46875 1285.359375 C 1664.808594 1275.390625 1716.449219 1189.621094 1723.089844 1185.980469 C 1728.550781 1231.78125 1688.710938 1280.148438 1688.511719 1312.230469 C 1688.359375 1335.800781 1706.941406 1339.929688 1709.199219 1371.671875 C 1711.058594 1397.949219 1704.410156 1421.980469 1706.320312 1446.171875 C 1730.058594 1437.28125 1761.121094 1395.101562 1784.910156 1386.550781 C 1774.578125 1418.480469 1710.890625 1435.519531 1699.230469 1474.128906 C 1684.53125 1522.789062 1683.359375 1576.140625 1688.191406 1630.609375 C 1702.390625 1637.53125 1702.429688 1629.648438 1711.75 1643.648438 C 1716.898438 1651.378906 1717.570312 1660.390625 1722.339844 1668.121094 C 1717.609375 1673.558594 1710.660156 1677.570312 1706.640625 1683.398438 C 1698.558594 1695.128906 1706.140625 1693.328125 1694.570312 1705.488281 C 1688.75 1711.621094 1662.011719 1732.449219 1656.078125 1734.691406 L 1662.320312 1700.539062 C 1637.648438 1708.078125 1596.660156 1734.820312 1587.011719 1759.449219 C 1565.71875 1813.820312 1522.089844 1768.089844 1511.660156 1809.601562 C 1522.171875 1808.238281 1531.558594 1804.851562 1540.988281 1802.101562 C 1546.410156 1800.511719 1551.988281 1798.648438 1556.570312 1798.621094 C 1579.371094 1798.480469 1560.070312 1806.480469 1638.449219 1805.980469 L 1647.660156 1826.828125 C 1600.101562 1830.769531 1585.550781 1847.15625 1552.121094 1866.828125 C 1511 1891.023438 1501.390625 1838.546875 1462.851562 1841.21875 C 1454.761719 1860.289062 1456.578125 1875.304688 1456.410156 1900.566406 C 1456.039062 1955.828125 1450.488281 1931.347656 1472.050781 1949.289062 C 1471.640625 1953.675781 1472.441406 1962.007812 1472.421875 1962.203125 C 1471.109375 1979.054688 1462.738281 1972.222656 1466.898438 1994.277344 C 1475.238281 1999.183594 1474.210938 1997.195312 1481.578125 2000.109375 L 1497.070312 2009.273438 C 1488.898438 2024.660156 1471.511719 2027.398438 1459.269531 2039.265625 C 1460.558594 2053.921875 1464.261719 2056.105469 1472.140625 2065.746094 C 1503.628906 2067.460938 1516.871094 2050.628906 1537.300781 2035.636719 C 1587.859375 1998.53125 1650.058594 1961.96875 1670.421875 1898.832031 L 1733.761719 1688.179688 C 1745.109375 1645.410156 1730.871094 1641.761719 1719.859375 1615.640625 C 1730.121094 1597.628906 1754.691406 1587.550781 1760.109375 1555.761719 C 1767.46875 1512.570312 1747.890625 1505.121094 1741.671875 1480.679688 C 1778.710938 1460.898438 1796.738281 1438.308594 1825.628906 1409.199219 C 1844.089844 1390.589844 1883.621094 1342.128906 1905.300781 1333.480469 C 1895.539062 1357.328125 1825.949219 1417.871094 1798.878906 1446.109375 C 1773.761719 1472.328125 1753.980469 1475.5 1765.679688 1514.160156 C 1783.859375 1574.28125 1756.769531 1569.839844 1754.871094 1600.269531 C 1789.328125 1595 1955.128906 1396.96875 1972.589844 1368.890625 C 1999.75 1325.230469 2031.429688 1266.941406 2048.761719 1220.070312 C 2059.539062 1190.941406 2089.039062 1067.980469 2093.609375 1036.320312 C 2080 1042.929688 2080.191406 1047.5 2072.238281 1060.039062 C 2067.550781 1067.429688 2063.808594 1073.121094 2058.320312 1082.101562 C 2055.710938 1077.960938 2050.910156 1091.011719 2058.589844 1072.160156 C 2064.050781 1058.761719 2073.28125 1052.320312 2077.398438 1037.828125 C 2038.328125 1055.421875 1843.621094 1217.199219 1793.429688 1254.5 C 1835.101562 1240.269531 1930.621094 1143.921875 1968.21875 1135.328125 C 1958.828125 1156.160156 1792.890625 1320.21875 1755.910156 1325.949219 C 1756.871094 1295.910156 1788.550781 1205.640625 1799.21875 1169.730469 C 1826.621094 1077.589844 1881.480469 931.351562 1863.328125 838.949219 "/>
<path fill-rule="evenodd" fill="rgb(98.046875%, 98.046875%, 31.005859%)" fill-opacity="1" d="M 1413.511719 927.929688 C 1421.078125 915.660156 1423.628906 899.761719 1428.210938 884.941406 C 1430.671875 876.980469 1432.761719 872.480469 1436.058594 862.828125 C 1439.828125 851.828125 1440.691406 846.160156 1448.390625 838.410156 C 1446.789062 852.539062 1440.390625 869.191406 1443.511719 877.78125 C 1450.558594 871.601562 1451.28125 860.601562 1453.460938 849.421875 C 1461.019531 810.558594 1503.539062 634.839844 1510.699219 622.109375 C 1513.75 686.648438 1460.308594 823.78125 1455.578125 876.46875 C 1474.199219 843.128906 1498.878906 734.421875 1507.578125 687.019531 L 1522.230469 618.660156 C 1533.109375 636.96875 1525.070312 874.601562 1521.210938 921.851562 C 1518.011719 960.890625 1511.609375 981.828125 1544.730469 997 C 1559.011719 992.339844 1570.730469 977.578125 1580.421875 965.359375 C 1595.210938 946.730469 1593.03125 927.929688 1592.5 903.351562 L 1578.46875 508.539062 C 1587.390625 511.550781 1587.578125 589.648438 1587.960938 603.429688 C 1589.03125 641.628906 1591.21875 676.308594 1592.550781 712.050781 C 1595.210938 783.820312 1598.570312 854.828125 1602.46875 928.558594 C 1615.738281 926.070312 1657.761719 869.25 1666.96875 856.851562 C 1702.851562 808.5 1696.558594 805.070312 1714.96875 762.570312 C 1762.738281 652.328125 1746.128906 651.109375 1717.621094 543.941406 C 1680.339844 403.808594 1650.191406 380.179688 1555.871094 284.871094 C 1538.238281 267.050781 1502.371094 223.628906 1479.5 215.628906 C 1479.101562 307.410156 1513.539062 334.5 1496.480469 419.648438 C 1487.480469 464.621094 1452.21875 541.070312 1434.511719 583.050781 C 1389.878906 688.820312 1382.410156 669.878906 1413.039062 750.148438 C 1428.929688 791.808594 1443.398438 844.800781 1423.101562 890.058594 C 1417.488281 902.570312 1404.289062 915.789062 1413.511719 927.929688 "/>
<path fill-rule="evenodd" fill="rgb(98.046875%, 98.046875%, 31.005859%)" fill-opacity="1" d="M 1286.050781 394.738281 C 1282.21875 387.03125 1335.640625 335.328125 1342.71875 317.539062 C 1325.609375 322.011719 1292.890625 349.910156 1281.351562 358.699219 C 1158.78125 452.148438 1118.851562 500.859375 1072.261719 655.691406 C 1068.609375 667.808594 1021.75 796.628906 1031.128906 808.558594 C 1051.660156 744.738281 1089.96875 625.808594 1111.691406 567.960938 C 1127.300781 526.359375 1147.359375 495.378906 1173.730469 468.578125 C 1184.359375 457.769531 1242.589844 393.191406 1258.75 390.089844 C 1256.789062 400.859375 1205.980469 480.640625 1190.160156 514.839844 C 1153.808594 593.460938 1131.511719 733.289062 1114.089844 828.53125 C 1109.058594 856.050781 1101.890625 882.890625 1097.199219 908.570312 C 1092.328125 935.269531 1101.460938 971.371094 1123.960938 978.121094 C 1125.25 959.140625 1124.328125 932.371094 1132.351562 919.859375 C 1139.078125 932.789062 1115.828125 1022.921875 1174.671875 1046.851562 C 1175.570312 955.410156 1162.851562 907.371094 1190.230469 796.808594 C 1199.628906 758.871094 1213.921875 728.921875 1221.5 692.761719 C 1230.148438 651.550781 1233.171875 616.570312 1247.011719 582.261719 C 1247.308594 619.128906 1212.390625 786.371094 1218.570312 801.359375 C 1230.859375 796.21875 1299.671875 662.78125 1312.109375 640.5 C 1328.859375 610.460938 1331.851562 614.710938 1331.96875 573.46875 C 1332.339844 444.210938 1388.910156 343.980469 1390.988281 288.679688 C 1377.21875 292.46875 1291.910156 385.589844 1286.050781 394.738281 "/>
<path fill-rule="evenodd" fill="rgb(98.046875%, 98.046875%, 31.005859%)" fill-opacity="1" d="M 1039.390625 2333.558594 C 1081.648438 2329.605469 1207.5 2322.132812 1238.320312 2331.675781 C 1222.960938 2341.378906 1122.621094 2342.066406 1105.558594 2369.164062 C 1142.21875 2386.351562 1250.949219 2358.691406 1313.308594 2394.65625 C 1359.988281 2421.578125 1406.699219 2521.949219 1435.800781 2496.925781 C 1448.679688 2485.851562 1430.058594 2391.285156 1445.390625 2371.5625 C 1467.898438 2335.6875 1652.128906 2382.898438 1680.859375 2394.09375 C 1716.578125 2408.011719 1744.46875 2433.847656 1780.871094 2417.898438 C 1811.179688 2404.609375 1858.679688 2386.195312 1858.859375 2357.03125 L 1738.648438 2339.914062 L 1755.789062 2332.578125 C 1823.621094 2319.476562 1873.878906 2363.1875 1882.929688 2316.679688 C 1843.671875 2284.828125 1701.988281 2286.476562 1649.890625 2291.183594 C 1614.121094 2294.414062 1575.578125 2304.042969 1542.199219 2314.269531 C 1500.609375 2327.007812 1476.648438 2338.890625 1428.769531 2330.734375 C 1376.300781 2321.792969 1342.410156 2281.167969 1214.828125 2278.777344 C 1171.96875 2277.972656 1130.910156 2281.230469 1093.210938 2288.761719 C 1075.289062 2292.34375 1003.75 2304.734375 989.59375 2316.679688 C 998.949219 2343.910156 1007.058594 2336.585938 1039.390625 2333.558594 "/>
<path fill-rule="evenodd" fill="rgb(98.046875%, 98.046875%, 31.005859%)" fill-opacity="1" d="M 1795.390625 1233.640625 C 1811.128906 1228.269531 1836.621094 1207.410156 1852.058594 1195.570312 C 1887.121094 1168.691406 1883.28125 1125.011719 1897.910156 1057.46875 C 1901.199219 1042.25 1906.910156 997.261719 1915.941406 984.859375 C 1914.390625 1019.789062 1883.28125 1150.148438 1889.171875 1165.128906 C 1895.871094 1150.160156 1901.171875 1112.019531 1905.230469 1091.359375 C 1908.050781 1077.019531 1915.179688 1029.578125 1923.359375 1020.53125 C 1926.910156 1031 1906 1126.378906 1903.371094 1149.238281 C 1924.179688 1146.109375 1940.070312 1133.320312 1951.460938 1118.878906 C 1975.839844 1087.949219 1978.621094 970.550781 1976.289062 929.570312 C 1974.691406 901.390625 1971.460938 888.941406 1967.199219 868.121094 C 1963.550781 850.28125 1963.628906 819.988281 1962.898438 801.800781 C 1961.898438 776.921875 1964.191406 678.609375 1957.101562 664.378906 C 1938.941406 672.679688 1931.269531 712.679688 1930.28125 730.71875 C 1929.128906 751.710938 1916.851562 781.421875 1910.078125 800.019531 C 1890.949219 852.589844 1883.339844 887.421875 1872.96875 945.988281 C 1859.511719 1022.011719 1797.089844 1213.308594 1795.390625 1233.640625 "/>
<path fill-rule="evenodd" fill="rgb(98.046875%, 98.046875%, 31.005859%)" fill-opacity="1" d="M 1417.839844 1334.46875 C 1442.75 1318.769531 1480.839844 1318.488281 1504.628906 1300.730469 C 1498.351562 1288.191406 1478.628906 1272.710938 1464.46875 1269.230469 C 1416.121094 1257.371094 1353.261719 1283.140625 1319.5 1326.570312 C 1299.148438 1352.75 1281.128906 1382.078125 1263.570312 1409.398438 C 1250.28125 1430.070312 1253.578125 1516.289062 1263.558594 1529.71875 L 1281.058594 1507.269531 C 1281.460938 1505.75 1282.71875 1505.78125 1284.550781 1505.28125 L 1273.929688 1597.539062 C 1283.738281 1586.558594 1290.140625 1552.078125 1307.039062 1520.148438 C 1354.378906 1430.660156 1409.820312 1410.5 1494.101562 1381.628906 C 1489.191406 1370.140625 1492.5 1383.339844 1487.949219 1368.75 C 1528.371094 1365.308594 1520.019531 1371.578125 1548.78125 1376.449219 C 1547.398438 1305.261719 1505.871094 1310.660156 1455.128906 1326.78125 C 1443.71875 1330.410156 1426.738281 1339.828125 1417.839844 1334.46875 "/>
<path fill-rule="evenodd" fill="rgb(98.046875%, 98.046875%, 31.005859%)" fill-opacity="1" d="M 1896.28125 1624.449219 C 1903.648438 1608.128906 1908.699219 1609.78125 1925.488281 1595.308594 C 1952.941406 1571.648438 2122.480469 1440.058594 2130 1420.039062 C 2098.691406 1423.648438 2051.160156 1440.449219 2018.039062 1448.519531 C 1983.78125 1456.878906 1958.238281 1463.390625 1944.941406 1497.660156 C 1936.140625 1520.328125 1930 1512.601562 1900.511719 1540.289062 C 1888.058594 1551.988281 1879.738281 1561.269531 1868.398438 1575.648438 C 1845.621094 1604.539062 1847.398438 1641.820312 1843.03125 1692.738281 C 1875.199219 1684.96875 1893.039062 1654.261719 1923.679688 1645.121094 C 1916.460938 1662.480469 1891.859375 1672.800781 1877.921875 1682.609375 C 1855.160156 1698.621094 1836.300781 1706.230469 1833.78125 1720.011719 C 1865.601562 1710.269531 1916.808594 1655.480469 1955.640625 1643.621094 C 1949.691406 1668.441406 1935.738281 1673.351562 1931.011719 1694.011719 C 1940.269531 1689.28125 2100 1469.910156 2102.421875 1459.449219 C 2061.28125 1487.589844 1918.011719 1616.910156 1896.28125 1624.449219 "/>
<path fill-rule="evenodd" fill="rgb(98.046875%, 98.046875%, 31.005859%)" fill-opacity="1" d="M 1417.261719 1618.25 C 1432.238281 1612.839844 1419.679688 1611.488281 1435.648438 1604.539062 L 1435.601562 1668.121094 C 1435.539062 1700.339844 1440.078125 1719.75 1421.859375 1719.878906 C 1420.238281 1719.890625 1413.53125 1719.21875 1412.46875 1719.058594 C 1391.359375 1715.910156 1388.28125 1711.730469 1377.179688 1697.109375 C 1366.941406 1683.628906 1352.429688 1663.691406 1337.171875 1655.929688 C 1338.71875 1676.75 1356.378906 1719.171875 1364.03125 1739.828125 C 1368.101562 1750.851562 1373.628906 1767.058594 1379.171875 1777.160156 C 1387.148438 1791.691406 1395.671875 1792.511719 1403.308594 1805.738281 C 1408.71875 1802.988281 1417.949219 1797.25 1417.070312 1791.359375 L 1423.628906 1815.5 C 1441.410156 1809.421875 1431.53125 1807.699219 1441.039062 1810.371094 C 1452.238281 1813.511719 1438.589844 1816.480469 1457.039062 1816.359375 C 1467.101562 1782.96875 1454.148438 1754.648438 1473.449219 1720.980469 C 1525.328125 1630.46875 1561.199219 1680.011719 1544.929688 1577.378906 C 1539.898438 1545.648438 1527.691406 1525.019531 1507.238281 1507.171875 C 1480.820312 1506.199219 1443.199219 1525.441406 1431.859375 1540.410156 C 1419.238281 1557.070312 1400.378906 1596.191406 1417.261719 1618.25 "/>
<path fill-rule="evenodd" fill="rgb(98.046875%, 98.046875%, 31.005859%)" fill-opacity="1" d="M 1548.140625 1410.199219 C 1568.550781 1403.328125 1565.320312 1394.011719 1589.800781 1394.609375 C 1609.761719 1425.628906 1605.828125 1440.851562 1606.089844 1484.429688 C 1606.199219 1502.589844 1601.480469 1529.570312 1608.460938 1540.371094 C 1616.53125 1531.828125 1618.589844 1519.308594 1622.941406 1506.101562 C 1628.851562 1488.101562 1628.691406 1481.101562 1640.359375 1470.410156 C 1639.578125 1518.140625 1622.480469 1586.121094 1605.210938 1623.851562 C 1592.769531 1651.03125 1591.171875 1646.308594 1578.851562 1652.738281 C 1569.460938 1657.648438 1579.421875 1649.628906 1571.808594 1657.429688 C 1570.960938 1658.300781 1564.378906 1671.421875 1563.960938 1672.371094 C 1556.621094 1689.070312 1539.089844 1717.378906 1536.390625 1736.28125 C 1564.980469 1725.25 1619.480469 1651.910156 1638.738281 1619.339844 C 1667.859375 1570.050781 1683.621094 1519.691406 1693.101562 1456.121094 C 1696.808594 1431.28125 1703.980469 1367.191406 1690.441406 1345.789062 L 1660.441406 1308.640625 C 1621.429688 1257.75 1549.75 1358.269531 1548.140625 1410.199219 "/>
<path fill-rule="evenodd" fill="rgb(98.046875%, 98.046875%, 31.005859%)" fill-opacity="1" d="M 1139.230469 1027.589844 C 1072.101562 939.191406 1015.878906 849.460938 970.074219 750.410156 C 964.460938 738.261719 954.035156 700.589844 941.199219 692.738281 C 941.273438 773.679688 1007.539062 927.949219 1037.46875 990.558594 C 1064.5 1047.089844 1149.191406 1211.039062 1195.539062 1225.238281 C 1199.070312 1188.300781 1175.941406 1169.550781 1159.488281 1146.089844 C 1131.851562 1106.660156 1039.628906 961.160156 1032.421875 930.949219 C 1051.398438 963.21875 1165.820312 1148.839844 1188.960938 1159.03125 C 1182.210938 1077.820312 1178.988281 1079.941406 1139.230469 1027.589844 "/>
<path fill-rule="evenodd" fill="rgb(98.046875%, 98.046875%, 31.005859%)" fill-opacity="1" d="M 1571.371094 2293.949219 C 1582.550781 2293.835938 1599.511719 2291.210938 1609.371094 2288.664062 C 1629.851562 2283.363281 1623.738281 2282.601562 1624.070312 2256.804688 C 1624.75 2202.027344 1667.308594 2080.867188 1687.460938 2062.457031 L 1702.179688 2185.121094 C 1753.359375 2174.929688 1738.25 1975.109375 1728.421875 1960.863281 C 1721.320312 1950.574219 1712.53125 1963.265625 1691.851562 1929.707031 C 1688.828125 1924.808594 1689.421875 1925.847656 1687.179688 1922.792969 L 1683.429688 1918.703125 C 1656.820312 1943.902344 1633.519531 2052.136719 1619.691406 2099.589844 C 1607.328125 2141.984375 1567.820312 2257.765625 1571.371094 2293.949219 "/>
<path fill-rule="evenodd" fill="rgb(98.046875%, 98.046875%, 31.005859%)" fill-opacity="1" d="M 1077.011719 1198.691406 C 1118.238281 1269.21875 1102.820312 1241.820312 1116.710938 1234.171875 C 1123.878906 1247.78125 1122.398438 1245.191406 1129.941406 1249.949219 C 1124.710938 1218.050781 1088.078125 1136.050781 1075.03125 1103.488281 C 1033.199219 999.109375 989.289062 933.140625 957.847656 822.949219 C 949.207031 792.671875 930.878906 679.03125 922.410156 663.289062 C 912.429688 678.148438 919.632812 708.109375 927.300781 751.160156 C 956.082031 912.789062 994.246094 1057.101562 1077.011719 1198.691406 "/>
<path fill-rule="evenodd" fill="rgb(98.046875%, 98.046875%, 31.005859%)" fill-opacity="1" d="M 1746.238281 542.558594 C 1753 527.378906 1756.070312 514.039062 1766.851562 505.25 L 1756.738281 604.800781 C 1770.25 597.710938 1771.261719 553.859375 1780.910156 538.929688 C 1800.148438 562 1855.730469 789.75 1870.878906 795.851562 C 1878.140625 775.75 1884.679688 767.378906 1886.019531 756.910156 C 1888.089844 740.679688 1882.699219 723.460938 1879.28125 708.710938 C 1871.589844 675.648438 1862.621094 649.648438 1851.179688 619.761719 C 1845.71875 605.488281 1791.230469 474.5 1777.160156 459.78125 C 1770.109375 471.421875 1776.488281 477.609375 1764.128906 493.25 C 1753.851562 506.238281 1744.109375 534.28125 1746.238281 542.558594 "/>
<path fill-rule="evenodd" fill="rgb(98.046875%, 98.046875%, 31.005859%)" fill-opacity="1" d="M 1933.558594 2165.671875 C 1941.199219 2157.171875 1942.011719 2136.347656 1935.640625 2124.386719 C 1931.121094 2115.894531 1760.289062 1993.335938 1741.921875 1989.347656 C 1742.550781 2050.296875 1744.308594 2040.316406 1821.75 2099.679688 C 1851.140625 2122.207031 1916.640625 2184.484375 1933.558594 2165.671875 "/>
<path fill-rule="evenodd" fill="rgb(98.046875%, 98.046875%, 31.005859%)" fill-opacity="1" d="M 782.863281 1017.648438 L 811.261719 1063.128906 C 820.96875 1077.480469 827.699219 1088.828125 837.9375 1103.859375 C 856.738281 1131.460938 876.910156 1163.46875 892.816406 1187.699219 C 905.621094 1207.199219 986.953125 1333.648438 1009.710938 1346.78125 C 1000.160156 1307.808594 911.617188 1169.660156 877.296875 1128.46875 C 863.179688 1111.519531 833.109375 1082.921875 828.535156 1063.550781 C 853.253906 1066.96875 875.121094 1092.570312 900.875 1099.238281 C 896.996094 1083.039062 890.519531 1083.511719 875.496094 1073.921875 C 853.550781 1059.910156 799.546875 1021.488281 782.863281 1017.648438 "/>
<path fill-rule="evenodd" fill="rgb(98.046875%, 98.046875%, 31.005859%)" fill-opacity="1" d="M 1773.769531 1769.03125 C 1752.691406 1778.75 1745.441406 1760.128906 1733.828125 1784.339844 L 1743.578125 1788.039062 C 1744.871094 1788.300781 1745.800781 1788.429688 1747.128906 1788.601562 C 1747.628906 1788.660156 1760.890625 1787.910156 1762.628906 1787.851562 C 1759.191406 1803.269531 1754.589844 1802.949219 1751.289062 1818.179688 C 1806.988281 1811.679688 1861.089844 1609.761719 1840.871094 1586.160156 C 1837.230469 1583.230469 1846.058594 1580.179688 1827.050781 1582.28125 C 1820.429688 1583.019531 1797.351562 1597.261719 1793.601562 1604.390625 C 1801.878906 1607.929688 1842.121094 1582.390625 1828.210938 1620.398438 C 1823.429688 1633.46875 1808.289062 1659.019531 1799.648438 1663.78125 C 1784.878906 1655.820312 1792.191406 1652.199219 1776.410156 1644.789062 C 1776.890625 1654.808594 1811.789062 1751.488281 1773.769531 1769.03125 "/>
<path fill-rule="evenodd" fill="rgb(98.046875%, 98.046875%, 31.005859%)" fill-opacity="1" d="M 1237.53125 2050.300781 C 1236.371094 2094.183594 1247.320312 2147.679688 1257.46875 2187.988281 C 1262.359375 2207.417969 1268.628906 2227.824219 1275.351562 2248.421875 C 1285.609375 2279.886719 1289.71875 2279.804688 1326.519531 2282.035156 C 1323.558594 2260.773438 1248.960938 2058.527344 1237.53125 2050.300781 "/>
<path fill-rule="evenodd" fill="rgb(98.046875%, 98.046875%, 31.005859%)" fill-opacity="1" d="M 1517.109375 2247.121094 C 1525.390625 2243.152344 1525.398438 2246.070312 1535.339844 2228.636719 C 1557.21875 2190.296875 1598.128906 2094.898438 1597.238281 2058.386719 C 1576.519531 2069.851562 1551.289062 2113.277344 1540.46875 2136.507812 C 1525.621094 2168.410156 1515.121094 2203.742188 1517.109375 2247.121094 "/>
<path fill-rule="evenodd" fill="rgb(98.046875%, 98.046875%, 31.005859%)" fill-opacity="1" d="M 1480.261719 1811.328125 C 1499.230469 1805.800781 1560.550781 1755.570312 1585.730469 1739.101562 C 1618.949219 1717.378906 1661.449219 1696.441406 1693.890625 1671.871094 C 1692.480469 1658.800781 1689.28125 1651.101562 1679.691406 1643.851562 C 1658.121094 1654.230469 1646.050781 1669.578125 1626.199219 1685.839844 C 1604.949219 1703.238281 1597.25 1709.738281 1576.871094 1726.539062 C 1560.769531 1739.808594 1544.320312 1752.828125 1527.5 1767.019531 C 1511.929688 1780.160156 1489.039062 1794.378906 1480.261719 1811.328125 "/>
<path fill-rule="evenodd" fill="rgb(98.046875%, 98.046875%, 31.005859%)" fill-opacity="1" d="M 1447.25 2222.71875 C 1461.648438 2205.644531 1481.96875 2155.003906 1484.5 2133.167969 C 1464.210938 2135.242188 1447.910156 2142.714844 1442.03125 2161.347656 C 1438.589844 2172.242188 1438.828125 2200.703125 1442.238281 2212.722656 C 1445.339844 2223.613281 1443.410156 2217.78125 1447.25 2222.71875 "/>
<path fill-rule="evenodd" fill="rgb(98.046875%, 98.046875%, 31.005859%)" fill-opacity="1" d="M 1272.78125 1790.238281 C 1294.128906 1793.328125 1362.730469 1813.839844 1374.570312 1806.828125 C 1349.429688 1778.828125 1331.589844 1807.109375 1313.980469 1786.558594 C 1296.351562 1765.980469 1313.78125 1750.070312 1276.890625 1742 L 1272.78125 1790.238281 "/>
<path fill-rule="evenodd" fill="rgb(98.046875%, 98.046875%, 31.005859%)" fill-opacity="1" d="M 1192.828125 1675.621094 C 1203.589844 1685.46875 1223.351562 1692.761719 1242.511719 1696.320312 C 1241.671875 1665.710938 1231.730469 1640.320312 1203.351562 1639.761719 L 1192.828125 1675.621094 "/>
<path fill-rule="evenodd" fill="rgb(98.046875%, 98.046875%, 31.005859%)" fill-opacity="1" d="M 1811.449219 1776.839844 C 1829.949219 1783.898438 1889.980469 1789.71875 1906.539062 1776.839844 C 1896.199219 1766.078125 1851.761719 1758.980469 1827.371094 1763.628906 C 1810.148438 1766.910156 1813.148438 1763.699219 1811.449219 1776.839844 "/>
<path fill-rule="evenodd" fill="rgb(98.046875%, 98.046875%, 31.005859%)" fill-opacity="1" d="M 1317.878906 1837.683594 C 1318.390625 1838.238281 1319.871094 1845.566406 1329.121094 1854.105469 C 1350.679688 1874.039062 1378.25 1893.097656 1386.460938 1846.28125 L 1317.878906 1837.683594 "/>
<path fill-rule="evenodd" fill="rgb(98.046875%, 98.046875%, 31.005859%)" fill-opacity="1" d="M 1699.359375 1915.785156 C 1698.941406 1958.09375 1760.269531 1965.132812 1754 1904.902344 C 1742.078125 1904.554688 1730.621094 1906.371094 1721.351562 1909.824219 L 1721.761719 1938.28125 C 1707.25 1933.148438 1707.808594 1927.878906 1699.359375 1915.785156 "/>
<path fill-rule="evenodd" fill="rgb(98.046875%, 98.046875%, 31.005859%)" fill-opacity="1" d="M 1260.628906 1789.03125 C 1258.621094 1749.859375 1255.121094 1712.359375 1222.609375 1702.671875 C 1223.679688 1718.148438 1232.109375 1733.558594 1237.988281 1749.460938 C 1249.941406 1781.769531 1246.601562 1783.191406 1260.628906 1789.03125 "/>
<path fill-rule="evenodd" fill="rgb(98.046875%, 98.046875%, 31.005859%)" fill-opacity="1" d="M 1332.378906 1752.988281 C 1318.078125 1741.621094 1300.390625 1719.730469 1281.808594 1715.871094 C 1283.710938 1740.75 1305.691406 1747.871094 1324.050781 1761.269531 C 1340.988281 1773.628906 1358.03125 1787.390625 1376.679688 1795.519531 C 1370.238281 1783.601562 1344.101562 1762.308594 1332.378906 1752.988281 "/>
<path fill-rule="evenodd" fill="rgb(98.046875%, 98.046875%, 31.005859%)" fill-opacity="1" d="M 1190.140625 1903.371094 C 1162.921875 1904.578125 1144.289062 1919.53125 1158.539062 1945.539062 C 1183.191406 1955.402344 1190.910156 1926.855469 1190.140625 1903.371094 "/>
<path fill-rule="evenodd" fill="rgb(98.046875%, 98.046875%, 31.005859%)" fill-opacity="1" d="M 1728.148438 1852.023438 C 1749.371094 1847.535156 1754.160156 1813.628906 1731.21875 1811.960938 L 1728.148438 1852.023438 "/>
<path fill-rule="evenodd" fill="rgb(98.046875%, 98.046875%, 31.005859%)" fill-opacity="1" d="M 1181.46875 1897.460938 C 1176.558594 1882.964844 1162.78125 1868.828125 1149.058594 1893.058594 C 1154.5 1896.6875 1152.25 1897.652344 1165.839844 1898.429688 C 1169.5 1898.636719 1177.480469 1897.671875 1181.46875 1897.460938 "/>
<path fill-rule="evenodd" fill="rgb(98.046875%, 98.046875%, 31.005859%)" fill-opacity="1" d="M 1162.871094 1833.578125 C 1155.730469 1809.808594 1166.609375 1824.578125 1151.089844 1821.519531 C 1144.230469 1837.261719 1151.429688 1847.28125 1165.140625 1850.871094 C 1164.878906 1844.675781 1164.398438 1838.671875 1162.871094 1833.578125 "/>
</svg>
